{
	"asset":{
		"generator":"Khronos glTF Blender I/O v3.6.27",
		"version":"2.0"
	},
	"extensionsUsed":[
		"KHR_materials_emissive_strength"
	],
	"scene":0,
	"scenes":[
		{
			"name":"Scene",
			"nodes":[
				0,
				1,
				2,
				3,
				4,
				5,
				19
			]
		}
	],
	"nodes":[
		{
			"mesh":0,
			"name":"Suzanne"
		},
		{
			"mesh":1,
			"name":"Suzanne.001",
			"translation":[
				-35,
				0,
				0
			]
		},
		{
			"mesh":2,
			"name":"Suzanne.002",
			"translation":[
				0,
				0,
				-35
			]
		},
		{
			"mesh":3,
			"name":"Plane",
			"translation":[
				6.7125749588012695,
				-1.234971046447754,
				8.180963516235352
			]
		},
		{
			"mesh":4,
			"name":"Plane.001",
			"translation":[
				-4.717131614685059,
				-3.1697134971618652,
				-0.2063160538673401
			]
		},
		{
			"mesh":5,
			"name":"Plane.005",
			"scale":[
				30.975772857666016,
				30.975772857666016,
				30.975772857666016
			],
			"translation":[
				-16.91407012939453,
				-1.3378410339355469,
				-17.036643981933594
			]
		},
		{
			"mesh":6,
			"name":"Circle",
			"translation":[
				0,
				0.07941356301307678,
				0.06923052668571472
			]
		},
		{
			"mesh":7,
			"name":"Circle.001",
			"scale":[
				0.7272369861602783,
				0.7272370457649231,
				0.7272369861602783
			],
			"translation":[
				0,
				4.143121719360352,
				0
			]
		},
		{
			"mesh":8,
			"name":"Circle.002",
			"translation":[
				0.7312964200973511,
				0.430899977684021,
				-0.014993138611316681
			]
		},
		{
			"mesh":9,
			"name":"Cube",
			"scale":[
				0.47796013951301575,
				0.47796010971069336,
				0.47796013951301575
			],
			"translation":[
				0,
				0.9703138470649719,
				0
			]
		},
		{
			"mesh":10,
			"name":"Cube.003",
			"scale":[
				0.21311312913894653,
				0.3608751595020294,
				0.21311314404010773
			],
			"translation":[
				0,
				3.776437282562256,
				0
			]
		},
		{
			"mesh":11,
			"name":"Cylinder"
		},
		{
			"mesh":12,
			"name":"Cylinder.001",
			"rotation":[
				0,
				0,
				-0.7071068286895752,
				0.7071068286895752
			],
			"scale":[
				0.02286461926996708,
				0.40269026160240173,
				0.02286461740732193
			],
			"translation":[
				0.005981592461466789,
				0.6475831270217896,
				1.0189698934555054
			]
		},
		{
			"mesh":13,
			"name":"Cylinder.002",
			"rotation":[
				0,
				0,
				-0.7071068286895752,
				0.7071068286895752
			],
			"scale":[
				0.02286461926996708,
				0.40269026160240173,
				0.02286461740732193
			],
			"translation":[
				0.005981534719467163,
				0.24347801506519318,
				1.0514540672302246
			]
		},
		{
			"mesh":14,
			"name":"Cylinder.003",
			"rotation":[
				0,
				0,
				-0.7071068286895752,
				0.7071068286895752
			],
			"scale":[
				0.02286461926996708,
				0.40269026160240173,
				0.02286461740732193
			],
			"translation":[
				0.005981451366096735,
				-0.1801176816225052,
				1.0254665613174438
			]
		},
		{
			"mesh":15,
			"name":"Cylinder.004",
			"scale":[
				0.04667953774333,
				0.5575765371322632,
				0.0466795414686203
			],
			"translation":[
				0,
				4.168442726135254,
				0
			]
		},
		{
			"mesh":16,
			"name":"Cylinder.005",
			"scale":[
				0.016711009666323662,
				0.19960924983024597,
				0.016711009666323662
			],
			"translation":[
				-0.4626123309135437,
				4.301572322845459,
				-0.4586288630962372
			]
		},
		{
			"mesh":17,
			"name":"Plane.002",
			"scale":[
				0.48141568899154663,
				0.48141565918922424,
				0.48141568899154663
			],
			"translation":[
				0,
				2.0621535778045654,
				0
			]
		},
		{
			"mesh":18,
			"name":"Plane.003",
			"rotation":[
				0.7071068286895752,
				0,
				0,
				0.7071068286895752
			],
			"translation":[
				0,
				2.4366681575775146,
				0
			]
		},
		{
			"children":[
				6,
				7,
				8,
				9,
				10,
				11,
				12,
				13,
				14,
				15,
				16,
				17,
				18
			],
			"name":"Buoy Controller",
			"rotation":[
				-0.008384373970329762,
				-0.058546774089336395,
				-0.01299345400184393,
				0.9981650114059448
			],
			"scale":[
				0.6416177749633789,
				0.6416177749633789,
				0.6416178941726685
			],
			"translation":[
				-4.717131614685059,
				0.11883187294006348,
				-0.2063160538673401
			]
		}
	],
	"animations":[
		{
			"channels":[
				{
					"sampler":0,
					"target":{
						"node":19,
						"path":"rotation"
					}
				}
			],
			"name":"EmptyAction",
			"samplers":[
				{
					"input":63,
					"interpolation":"LINEAR",
					"output":64
				}
			]
		}
	],
	"materials":[
		{
			"doubleSided":true,
			"name":"Material.001",
			"pbrMetallicRoughness":{
				"baseColorFactor":[
					0.25015780329704285,
					0.31398844718933105,
					0.5028863549232483,
					1
				],
				"metallicFactor":0,
				"roughnessFactor":0.10000000149011612
			}
		},
		{
			"doubleSided":true,
			"name":"Material.003",
			"pbrMetallicRoughness":{}
		},
		{
			"doubleSided":true,
			"name":"Red Rough",
			"pbrMetallicRoughness":{
				"metallicFactor":0
			}
		},
		{
			"doubleSided":true,
			"name":"Black Rough Top",
			"pbrMetallicRoughness":{
				"metallicFactor":0
			}
		},
		{
			"doubleSided":true,
			"emissiveFactor":[
				1,
				0.5511884689331055,
				0.18833370506763458
			],
			"extensions":{
				"KHR_materials_emissive_strength":{
					"emissiveStrength":56.39999771118164
				}
			},
			"name":"Buoy Light",
			"pbrMetallicRoughness":{
				"baseColorFactor":[
					0,
					0,
					0,
					1
				]
			}
		},
		{
			"doubleSided":true,
			"name":"Black Rough Bottom",
			"pbrMetallicRoughness":{
				"metallicFactor":0
			}
		},
		{
			"doubleSided":true,
			"name":"Black Rough Top",
			"pbrMetallicRoughness":{
				"metallicFactor":0
			}
		},
		{
			"doubleSided":true,
			"name":"Red Rough",
			"pbrMetallicRoughness":{
				"metallicFactor":0
			}
		}
	],
	"meshes":[
		{
			"name":"Suzanne",
			"primitives":[
				{
					"attributes":{
						"POSITION":0,
						"NORMAL":1,
						"TEXCOORD_0":2
					},
					"indices":3,
					"material":0
				}
			]
		},
		{
			"name":"Suzanne.001",
			"primitives":[
				{
					"attributes":{
						"POSITION":4,
						"NORMAL":5,
						"TEXCOORD_0":6
					},
					"indices":7,
					"material":0
				}
			]
		},
		{
			"name":"Suzanne.002",
			"primitives":[
				{
					"attributes":{
						"POSITION":8,
						"NORMAL":9,
						"TEXCOORD_0":10
					},
					"indices":11,
					"material":0
				}
			]
		},
		{
			"name":"Plane",
			"primitives":[
				{
					"attributes":{
						"POSITION":12,
						"NORMAL":13,
						"TEXCOORD_0":14
					},
					"indices":15
				}
			]
		},
		{
			"name":"Plane.001",
			"primitives":[
				{
					"attributes":{
						"POSITION":16,
						"NORMAL":17,
						"TEXCOORD_0":18
					},
					"indices":19
				}
			]
		},
		{
			"name":"Plane.004",
			"primitives":[
				{
					"attributes":{
						"POSITION":20,
						"NORMAL":21,
						"TEXCOORD_0":22
					},
					"indices":23,
					"material":1
				}
			]
		},
		{
			"name":"Circle.001",
			"primitives":[
				{
					"attributes":{
						"POSITION":24,
						"NORMAL":25
					},
					"indices":26,
					"material":2
				}
			]
		},
		{
			"name":"Circle.002",
			"primitives":[
				{
					"attributes":{
						"POSITION":27,
						"NORMAL":28
					},
					"indices":29,
					"material":2
				}
			]
		},
		{
			"name":"Circle.003",
			"primitives":[
				{
					"attributes":{
						"POSITION":30,
						"NORMAL":31
					},
					"indices":32,
					"material":2
				}
			]
		},
		{
			"name":"Cube.009",
			"primitives":[
				{
					"attributes":{
						"POSITION":33,
						"NORMAL":34
					},
					"indices":35,
					"material":2
				}
			]
		},
		{
			"name":"Cube.007",
			"primitives":[
				{
					"attributes":{
						"POSITION":36,
						"NORMAL":37
					},
					"indices":38,
					"material":3
				},
				{
					"attributes":{
						"POSITION":39,
						"NORMAL":40
					},
					"indices":41,
					"material":4
				}
			]
		},
		{
			"name":"Cylinder.002",
			"primitives":[
				{
					"attributes":{
						"POSITION":42,
						"NORMAL":43,
						"TEXCOORD_0":44
					},
					"indices":45,
					"material":5
				}
			]
		},
		{
			"name":"Cylinder.003",
			"primitives":[
				{
					"attributes":{
						"POSITION":46,
						"NORMAL":47
					},
					"indices":48,
					"material":2
				}
			]
		},
		{
			"name":"Cylinder.004",
			"primitives":[
				{
					"attributes":{
						"POSITION":49,
						"NORMAL":50
					},
					"indices":48,
					"material":2
				}
			]
		},
		{
			"name":"Cylinder.004",
			"primitives":[
				{
					"attributes":{
						"POSITION":51,
						"NORMAL":52
					},
					"indices":48,
					"material":2
				}
			]
		},
		{
			"name":"Cylinder.005",
			"primitives":[
				{
					"attributes":{
						"POSITION":53,
						"NORMAL":54
					},
					"indices":48,
					"material":6
				}
			]
		},
		{
			"name":"Cylinder.006",
			"primitives":[
				{
					"attributes":{
						"POSITION":55,
						"NORMAL":56
					},
					"indices":48,
					"material":6
				}
			]
		},
		{
			"name":"Plane.009",
			"primitives":[
				{
					"attributes":{
						"POSITION":57,
						"NORMAL":58
					},
					"indices":59,
					"material":7
				}
			]
		},
		{
			"name":"Plane.011",
			"primitives":[
				{
					"attributes":{
						"POSITION":60,
						"NORMAL":61
					},
					"indices":62,
					"material":2
				}
			]
		}
	],
	"accessors":[
		{
			"bufferView":0,
			"componentType":5126,
			"count":10201,
			"max":[
				17.890295028686523,
				1.2816308736801147,
				18.0377197265625
			],
			"min":[
				-17.890295028686523,
				-2.0999996662139893,
				-18.0377197265625
			],
			"type":"VEC3"
		},
		{
			"bufferView":1,
			"componentType":5126,
			"count":10201,
			"type":"VEC3"
		},
		{
			"bufferView":2,
			"componentType":5126,
			"count":10201,
			"type":"VEC2"
		},
		{
			"bufferView":3,
			"componentType":5123,
			"count":60000,
			"type":"SCALAR"
		},
		{
			"bufferView":4,
			"componentType":5126,
			"count":4950,
			"max":[
				17.906286239624023,
				1.258951187133789,
				18.015209197998047
			],
			"min":[
				-17.906286239624023,
				-2.0999996662139893,
				-53.01520919799805
			],
			"type":"VEC3"
		},
		{
			"bufferView":5,
			"componentType":5126,
			"count":4950,
			"type":"VEC3"
		},
		{
			"bufferView":6,
			"componentType":5126,
			"count":4950,
			"type":"VEC2"
		},
		{
			"bufferView":7,
			"componentType":5123,
			"count":28812,
			"type":"SCALAR"
		},
		{
			"bufferView":8,
			"componentType":5126,
			"count":2500,
			"max":[
				17.906265258789062,
				1.2589341402053833,
				18.015193939208984
			],
			"min":[
				-17.906265258789062,
				-2.0999999046325684,
				-18.015193939208984
			],
			"type":"VEC3"
		},
		{
			"bufferView":9,
			"componentType":5126,
			"count":2500,
			"type":"VEC3"
		},
		{
			"bufferView":10,
			"componentType":5126,
			"count":2500,
			"type":"VEC2"
		},
		{
			"bufferView":11,
			"componentType":5123,
			"count":14406,
			"type":"SCALAR"
		},
		{
			"bufferView":12,
			"componentType":5126,
			"count":64,
			"max":[
				1,
				1.8841218948364258,
				1
			],
			"min":[
				-1,
				1.1988680362701416,
				-1
			],
			"type":"VEC3"
		},
		{
			"bufferView":13,
			"componentType":5126,
			"count":64,
			"type":"VEC3"
		},
		{
			"bufferView":14,
			"componentType":5126,
			"count":64,
			"type":"VEC2"
		},
		{
			"bufferView":15,
			"componentType":5123,
			"count":96,
			"type":"SCALAR"
		},
		{
			"bufferView":16,
			"componentType":5126,
			"count":64,
			"max":[
				1,
				3.380566358566284,
				1
			],
			"min":[
				-1,
				3.1799869537353516,
				-0.9999999403953552
			],
			"type":"VEC3"
		},
		{
			"bufferView":17,
			"componentType":5126,
			"count":64,
			"type":"VEC3"
		},
		{
			"bufferView":18,
			"componentType":5126,
			"count":64,
			"type":"VEC2"
		},
		{
			"bufferView":19,
			"componentType":5123,
			"count":96,
			"type":"SCALAR"
		},
		{
			"bufferView":20,
			"componentType":5126,
			"count":6452,
			"max":[
				1,
				0,
				1
			],
			"min":[
				-1,
				-1.5239461660385132,
				-1
			],
			"type":"VEC3"
		},
		{
			"bufferView":21,
			"componentType":5126,
			"count":6452,
			"type":"VEC3"
		},
		{
			"bufferView":22,
			"componentType":5126,
			"count":6452,
			"type":"VEC2"
		},
		{
			"bufferView":23,
			"componentType":5123,
			"count":32436,
			"type":"SCALAR"
		},
		{
			"bufferView":24,
			"componentType":5126,
			"count":212,
			"max":[
				0.32417887449264526,
				0.6592040657997131,
				1.0667823553085327
			],
			"min":[
				-0.32417887449264526,
				-0.47057271003723145,
				0.7883907556533813
			],
			"type":"VEC3"
		},
		{
			"bufferView":25,
			"componentType":5126,
			"count":212,
			"type":"VEC3"
		},
		{
			"bufferView":26,
			"componentType":5123,
			"count":576,
			"type":"SCALAR"
		},
		{
			"bufferView":27,
			"componentType":5126,
			"count":768,
			"max":[
				0.9935952425003052,
				0.08653689920902252,
				0.9935951828956604
			],
			"min":[
				-0.9935952425003052,
				0,
				-0.99359530210495
			],
			"type":"VEC3"
		},
		{
			"bufferView":28,
			"componentType":5126,
			"count":768,
			"type":"VEC3"
		},
		{
			"bufferView":29,
			"componentType":5123,
			"count":3072,
			"type":"SCALAR"
		},
		{
			"bufferView":30,
			"componentType":5126,
			"count":624,
			"max":[
				0.16539700329303741,
				0.2137642800807953,
				0.16539700329303741
			],
			"min":[
				-0.16539700329303741,
				0,
				-0.16539700329303741
			],
			"type":"VEC3"
		},
		{
			"bufferView":31,
			"componentType":5126,
			"count":624,
			"type":"VEC3"
		},
		{
			"bufferView":32,
			"componentType":5123,
			"count":2712,
			"type":"SCALAR"
		},
		{
			"bufferView":33,
			"componentType":5126,
			"count":14336,
			"max":[
				1.059058666229248,
				6.652597427368164,
				1.059058666229248
			],
			"min":[
				-1.059058666229248,
				-1.158436894416809,
				-1.059058666229248
			],
			"type":"VEC3"
		},
		{
			"bufferView":34,
			"componentType":5126,
			"count":14336,
			"type":"VEC3"
		},
		{
			"bufferView":35,
			"componentType":5123,
			"count":21840,
			"type":"SCALAR"
		},
		{
			"bufferView":36,
			"componentType":5126,
			"count":104,
			"max":[
				1,
				1,
				1
			],
			"min":[
				-1,
				-1,
				-1
			],
			"type":"VEC3"
		},
		{
			"bufferView":37,
			"componentType":5126,
			"count":104,
			"type":"VEC3"
		},
		{
			"bufferView":38,
			"componentType":5123,
			"count":204,
			"type":"SCALAR"
		},
		{
			"bufferView":39,
			"componentType":5126,
			"count":16,
			"max":[
				0.7731658220291138,
				0.849191427230835,
				0.7731658220291138
			],
			"min":[
				-0.7731658220291138,
				-0.849191427230835,
				-0.7731658220291138
			],
			"type":"VEC3"
		},
		{
			"bufferView":40,
			"componentType":5126,
			"count":16,
			"type":"VEC3"
		},
		{
			"bufferView":41,
			"componentType":5123,
			"count":24,
			"type":"SCALAR"
		},
		{
			"bufferView":42,
			"componentType":5126,
			"count":8521,
			"max":[
				0.9935951828956604,
				0.4809418022632599,
				0.9935951232910156
			],
			"min":[
				-0.9935951828956604,
				-0.6040056347846985,
				-0.9935951828956604
			],
			"type":"VEC3"
		},
		{
			"bufferView":43,
			"componentType":5126,
			"count":8521,
			"type":"VEC3"
		},
		{
			"bufferView":44,
			"componentType":5126,
			"count":8521,
			"type":"VEC2"
		},
		{
			"bufferView":45,
			"componentType":5123,
			"count":44544,
			"type":"SCALAR"
		},
		{
			"bufferView":46,
			"componentType":5126,
			"count":128,
			"max":[
				1,
				1,
				1
			],
			"min":[
				-1,
				-1,
				-1
			],
			"type":"VEC3"
		},
		{
			"bufferView":47,
			"componentType":5126,
			"count":128,
			"type":"VEC3"
		},
		{
			"bufferView":48,
			"componentType":5123,
			"count":372,
			"type":"SCALAR"
		},
		{
			"bufferView":49,
			"componentType":5126,
			"count":128,
			"max":[
				1,
				1,
				1
			],
			"min":[
				-1,
				-1,
				-1
			],
			"type":"VEC3"
		},
		{
			"bufferView":50,
			"componentType":5126,
			"count":128,
			"type":"VEC3"
		},
		{
			"bufferView":51,
			"componentType":5126,
			"count":128,
			"max":[
				1,
				1,
				1
			],
			"min":[
				-1,
				-1,
				-1
			],
			"type":"VEC3"
		},
		{
			"bufferView":52,
			"componentType":5126,
			"count":128,
			"type":"VEC3"
		},
		{
			"bufferView":53,
			"componentType":5126,
			"count":128,
			"max":[
				1,
				3.0610435009002686,
				1
			],
			"min":[
				-1,
				-1,
				-1
			],
			"type":"VEC3"
		},
		{
			"bufferView":54,
			"componentType":5126,
			"count":128,
			"type":"VEC3"
		},
		{
			"bufferView":55,
			"componentType":5126,
			"count":128,
			"max":[
				1,
				3.0610435009002686,
				1
			],
			"min":[
				-1,
				-1,
				-1
			],
			"type":"VEC3"
		},
		{
			"bufferView":56,
			"componentType":5126,
			"count":128,
			"type":"VEC3"
		},
		{
			"bufferView":57,
			"componentType":5126,
			"count":24,
			"max":[
				1,
				0.07713090628385544,
				1
			],
			"min":[
				-1,
				0,
				-1
			],
			"type":"VEC3"
		},
		{
			"bufferView":58,
			"componentType":5126,
			"count":24,
			"type":"VEC3"
		},
		{
			"bufferView":59,
			"componentType":5123,
			"count":36,
			"type":"SCALAR"
		},
		{
			"bufferView":60,
			"componentType":5126,
			"count":13716,
			"max":[
				0.48517748713493347,
				0.4871445894241333,
				0.3413240909576416
			],
			"min":[
				-0.48517748713493347,
				-0.4871445894241333,
				-1.6710126399993896
			],
			"type":"VEC3"
		},
		{
			"bufferView":61,
			"componentType":5126,
			"count":13716,
			"type":"VEC3"
		},
		{
			"bufferView":62,
			"componentType":5123,
			"count":22224,
			"type":"SCALAR"
		},
		{
			"bufferView":63,
			"componentType":5126,
			"count":1,
			"max":[
				0.03333333333333333
			],
			"min":[
				0.03333333333333333
			],
			"type":"SCALAR"
		},
		{
			"bufferView":64,
			"componentType":5126,
			"count":1,
			"type":"VEC4"
		}
	],
	"bufferViews":[
		{
			"buffer":0,
			"byteLength":122412,
			"byteOffset":0,
			"target":34962
		},
		{
			"buffer":0,
			"byteLength":122412,
			"byteOffset":122412,
			"target":34962
		},
		{
			"buffer":0,
			"byteLength":81608,
			"byteOffset":244824,
			"target":34962
		},
		{
			"buffer":0,
			"byteLength":120000,
			"byteOffset":326432,
			"target":34963
		},
		{
			"buffer":0,
			"byteLength":59400,
			"byteOffset":446432,
			"target":34962
		},
		{
			"buffer":0,
			"byteLength":59400,
			"byteOffset":505832,
			"target":34962
		},
		{
			"buffer":0,
			"byteLength":39600,
			"byteOffset":565232,
			"target":34962
		},
		{
			"buffer":0,
			"byteLength":57624,
			"byteOffset":604832,
			"target":34963
		},
		{
			"buffer":0,
			"byteLength":30000,
			"byteOffset":662456,
			"target":34962
		},
		{
			"buffer":0,
			"byteLength":30000,
			"byteOffset":692456,
			"target":34962
		},
		{
			"buffer":0,
			"byteLength":20000,
			"byteOffset":722456,
			"target":34962
		},
		{
			"buffer":0,
			"byteLength":28812,
			"byteOffset":742456,
			"target":34963
		},
		{
			"buffer":0,
			"byteLength":768,
			"byteOffset":771268,
			"target":34962
		},
		{
			"buffer":0,
			"byteLength":768,
			"byteOffset":772036,
			"target":34962
		},
		{
			"buffer":0,
			"byteLength":512,
			"byteOffset":772804,
			"target":34962
		},
		{
			"buffer":0,
			"byteLength":192,
			"byteOffset":773316,
			"target":34963
		},
		{
			"buffer":0,
			"byteLength":768,
			"byteOffset":773508,
			"target":34962
		},
		{
			"buffer":0,
			"byteLength":768,
			"byteOffset":774276,
			"target":34962
		},
		{
			"buffer":0,
			"byteLength":512,
			"byteOffset":775044,
			"target":34962
		},
		{
			"buffer":0,
			"byteLength":192,
			"byteOffset":775556,
			"target":34963
		},
		{
			"buffer":0,
			"byteLength":77424,
			"byteOffset":775748,
			"target":34962
		},
		{
			"buffer":0,
			"byteLength":77424,
			"byteOffset":853172,
			"target":34962
		},
		{
			"buffer":0,
			"byteLength":51616,
			"byteOffset":930596,
			"target":34962
		},
		{
			"buffer":0,
			"byteLength":64872,
			"byteOffset":982212,
			"target":34963
		},
		{
			"buffer":0,
			"byteLength":2544,
			"byteOffset":1047084,
			"target":34962
		},
		{
			"buffer":0,
			"byteLength":2544,
			"byteOffset":1049628,
			"target":34962
		},
		{
			"buffer":0,
			"byteLength":1152,
			"byteOffset":1052172,
			"target":34963
		},
		{
			"buffer":0,
			"byteLength":9216,
			"byteOffset":1053324,
			"target":34962
		},
		{
			"buffer":0,
			"byteLength":9216,
			"byteOffset":1062540,
			"target":34962
		},
		{
			"buffer":0,
			"byteLength":6144,
			"byteOffset":1071756,
			"target":34963
		},
		{
			"buffer":0,
			"byteLength":7488,
			"byteOffset":1077900,
			"target":34962
		},
		{
			"buffer":0,
			"byteLength":7488,
			"byteOffset":1085388,
			"target":34962
		},
		{
			"buffer":0,
			"byteLength":5424,
			"byteOffset":1092876,
			"target":34963
		},
		{
			"buffer":0,
			"byteLength":172032,
			"byteOffset":1098300,
			"target":34962
		},
		{
			"buffer":0,
			"byteLength":172032,
			"byteOffset":1270332,
			"target":34962
		},
		{
			"buffer":0,
			"byteLength":43680,
			"byteOffset":1442364,
			"target":34963
		},
		{
			"buffer":0,
			"byteLength":1248,
			"byteOffset":1486044,
			"target":34962
		},
		{
			"buffer":0,
			"byteLength":1248,
			"byteOffset":1487292,
			"target":34962
		},
		{
			"buffer":0,
			"byteLength":408,
			"byteOffset":1488540,
			"target":34963
		},
		{
			"buffer":0,
			"byteLength":192,
			"byteOffset":1488948,
			"target":34962
		},
		{
			"buffer":0,
			"byteLength":192,
			"byteOffset":1489140,
			"target":34962
		},
		{
			"buffer":0,
			"byteLength":48,
			"byteOffset":1489332,
			"target":34963
		},
		{
			"buffer":0,
			"byteLength":102252,
			"byteOffset":1489380,
			"target":34962
		},
		{
			"buffer":0,
			"byteLength":102252,
			"byteOffset":1591632,
			"target":34962
		},
		{
			"buffer":0,
			"byteLength":68168,
			"byteOffset":1693884,
			"target":34962
		},
		{
			"buffer":0,
			"byteLength":89088,
			"byteOffset":1762052,
			"target":34963
		},
		{
			"buffer":0,
			"byteLength":1536,
			"byteOffset":1851140,
			"target":34962
		},
		{
			"buffer":0,
			"byteLength":1536,
			"byteOffset":1852676,
			"target":34962
		},
		{
			"buffer":0,
			"byteLength":744,
			"byteOffset":1854212,
			"target":34963
		},
		{
			"buffer":0,
			"byteLength":1536,
			"byteOffset":1854956,
			"target":34962
		},
		{
			"buffer":0,
			"byteLength":1536,
			"byteOffset":1856492,
			"target":34962
		},
		{
			"buffer":0,
			"byteLength":1536,
			"byteOffset":1858028,
			"target":34962
		},
		{
			"buffer":0,
			"byteLength":1536,
			"byteOffset":1859564,
			"target":34962
		},
		{
			"buffer":0,
			"byteLength":1536,
			"byteOffset":1861100,
			"target":34962
		},
		{
			"buffer":0,
			"byteLength":1536,
			"byteOffset":1862636,
			"target":34962
		},
		{
			"buffer":0,
			"byteLength":1536,
			"byteOffset":1864172,
			"target":34962
		},
		{
			"buffer":0,
			"byteLength":1536,
			"byteOffset":1865708,
			"target":34962
		},
		{
			"buffer":0,
			"byteLength":288,
			"byteOffset":1867244,
			"target":34962
		},
		{
			"buffer":0,
			"byteLength":288,
			"byteOffset":1867532,
			"target":34962
		},
		{
			"buffer":0,
			"byteLength":72,
			"byteOffset":1867820,
			"target":34963
		},
		{
			"buffer":0,
			"byteLength":164592,
			"byteOffset":1867892,
			"target":34962
		},
		{
			"buffer":0,
			"byteLength":164592,
			"byteOffset":2032484,
			"target":34962
		},
		{
			"buffer":0,
			"byteLength":44448,
			"byteOffset":2197076,
			"target":34963
		},
		{
			"buffer":0,
			"byteLength":4,
			"byteOffset":2241524
		},
		{
			"buffer":0,
			"byteLength":16,
			"byteOffset":2241528
		}
	],
	"buffers":[
		{
			"byteLength":2241544,
			"uri":"ocean.bin"
		}
	]
}
